<?xml version="1.0"?>

<!DOCTYPE svg PUBLIC '-//W3C//DTD SVG 1.0//EN' 'http://www.w3.org/TR/2001/REC-SVG-20010904/DTD/svg10.dtd'>
<svg fill-opacity="1" xmlns:xlink="http://www.w3.org/1999/xlink" color-rendering="auto" color-interpolation="auto" text-rendering="auto" stroke="black" stroke-linecap="square" stroke-miterlimit="10" shape-rendering="auto" stroke-opacity="1" fill="black" stroke-dasharray="none" font-weight="normal" stroke-width="1" xmlns="http://www.w3.org/2000/svg" font-family="&apos;Dialog&apos;" font-style="normal" stroke-linejoin="miter" font-size="12" stroke-dashoffset="0" image-rendering="auto">
  <!--Unicode Character 'BENGALI RUPEE SIGN' (U+09F3)-->
  <defs id="genericDefs" />
  <g>
    <g>
      <path d="M44.2969 182.25 L44.2969 210.9375 L165.6562 210.9375 L165.6562 226.6875 L44.2969 226.6875 L44.2969 349.3125 Q44.2969 357.0469 48.7188 361.0625 Q53.1562 365.0625 66.7969 365.0625 Q81.8438 365.0625 98.9219 358.1719 Q116.0156 351.2812 127.8906 335.4688 Q139.7812 319.6406 139.7812 302.625 Q139.7812 287.0156 132.1094 278.2969 Q124.4531 269.5781 114.75 269.5781 Q107.7188 269.5781 107.7188 271.9688 Q107.7188 272.9531 111.5156 277.5938 Q115.1719 282.375 115.1719 289.9688 Q115.1719 298.9688 108.9062 305.0156 Q102.6562 311.0625 91.6875 311.0625 Q80.8594 311.0625 73.8281 303.9688 Q66.7969 296.8594 66.7969 284.3438 Q66.7969 269.8594 77.0625 260.7969 Q87.3281 251.7188 103.2188 251.7188 Q122.7656 251.7188 135.3438 265.7812 Q147.9375 279.8438 147.9375 301.9219 Q147.9375 335.5312 121.7031 360.7031 Q95.4844 385.875 61.7344 385.875 Q44.0156 385.875 35.1562 378.1406 Q26.2969 370.4062 26.2969 354.9375 L26.2969 226.6875 L0 226.6875 L0 210.9375 L26.2969 210.9375 Q26.2969 198.1406 25.7969 182.6719 Q25.3125 167.2031 18.625 158.9062 Q11.9531 150.6094 -0.5625 150.6094 Q-10.6875 150.6094 -20.3906 155.9531 L-25.0312 148.7812 Q-5.9062 134.0156 10.6875 134.0156 Q27.4219 134.0156 35.8594 146.1094 Q44.2969 158.2031 44.2969 182.25 Z" stroke="none" />
    </g>
  </g>
</svg>
